<?xml version="1.0" standalone="no"?><!DOCTYPE svg PUBLIC "-//W3C//DTD SVG 1.1//EN" "http://www.w3.org/Graphics/SVG/1.1/DTD/svg11.dtd"><svg t="1559807534059" class="icon" style="" viewBox="0 0 1066 1024" version="1.1" xmlns="http://www.w3.org/2000/svg" p-id="4789" xmlns:xlink="http://www.w3.org/1999/xlink" width="49.96875" height="48"><defs><style type="text/css"></style></defs><path d="M962.41248301 540.7050544l-405.77059336 224.6906373a36.67347158 36.67347158 0 0 1-20.51164512 8.58714258c-1.72492822 0.26248886-3.33736084 0.26248886-5.02479052 0.33748593-1.72492822-0.07499708-3.33736084-0.07499708-5.02479053-0.33748593a36.74846865 36.74846865 0 0 1-20.47414746-8.54964405L98.74846865 539.80509131a34.64855596 34.64855596 0 0 1-13.4994375-48.41048233 37.76092646 37.76092646 0 0 1 50.36040176-12.97445976l395.75850996 219.47835498 394.25857295-218.31590391a37.6859294 37.6859294 0 0 1 50.24790615 12.8994627 34.49856269 34.49856269 0 0 1-13.46193896 48.22299141z m-13.53693604-179.99250117l-392.23365732 217.19095048a36.67347158 36.67347158 0 0 1-20.51164512 8.58714257c-1.72492822 0.26248886-3.33736084 0.26248886-5.06228906 0.33748594-1.68742969-0.07499708-3.29986231-0.07499708-4.98729199-0.33748594a36.74846865 36.74846865 0 0 1-20.47414746-8.54964404L111.61043281 359.43760654A36.29848799 36.29848799 0 0 1 86.37398457 342.86329708c-1.57493408-2.62489043-2.09991269-5.47477207-2.88738017-8.28715431a33.56110195 33.56110195 0 0 1 1.76242675-30.67372178A36.37348418 36.37348418 0 0 1 114.08532998 286.99062558L505.08153828 71.03712325a37.01095752 37.01095752 0 0 1 20.51164511-8.54964317c1.68742969-0.26248886 3.33736084-0.26248886 5.02479054-0.33748594 1.68742969 0.07499708 3.29986231 0.07499708 4.98729287 0.33748594a36.74846865 36.74846865 0 0 1 20.47414658 8.51214463L948.83804844 288.26557227a36.26098945 36.26098945 0 0 1 27.03637353 16.76180127 33.11112041 33.11112041 0 0 1 4.23732305 19.46168964 33.11112041 33.11112041 0 0 1-4.23732305 19.46168877 36.29848799 36.29848799 0 0 1-26.998875 16.76180127zM530.31798653 138.27182188L194.63197344 323.66409717l336.73596943 186.74221904 335.72351162-185.87975449-336.77346796-186.25473984zM135.60943291 665.94983574l395.75850996 219.44085645 394.25857295-218.31590391a37.6859294 37.6859294 0 0 1 50.24790615 12.93696123 34.49856269 34.49856269 0 0 1-13.46193897 48.185492l-405.77059336 224.69063818a36.67347158 36.67347158 0 0 1-20.54914365 8.58714258c-1.68742969 0.26248886-3.29986231 0.26248886-4.98729198 0.33748593-1.72492822-0.07499708-3.33736084-0.07499708-5.02479054-0.33748593a36.74846865 36.74846865 0 0 1-20.47414745-8.54964405L98.74846865 727.2972793a34.64855596 34.64855596 0 0 1-13.4994375-48.41048321 37.6859294 37.6859294 0 0 1 50.36040176-12.93696034z" p-id="4790" fill="#41B883"></path></svg>