<?xml version="1.0" standalone="no"?>
<!DOCTYPE svg PUBLIC "-//W3C//DTD SVG 1.1//EN" "http://www.w3.org/Graphics/SVG/1.1/DTD/svg11.dtd">
<svg width="312.9415144402934" height="217.79999999999998" viewBox="0 -5 250 123.99417299231033"
    xmlns="http://www.w3.org/2000/svg">
    <g id="SvgjsG1448" featurekey="symbolFeature-0"
        transform="matrix(1.799023694195619,0,0,1.799023694195619,35.04881185885367,-47.19064165091498)"
        fill="#b100ff">
        <path xmlns="http://www.w3.org/2000/svg"
            d="M22.53,38.82,49.8,50.46a.5.5,0,0,0,.39,0L77.47,38.82a.5.5,0,0,0,0-.92L50.2,26.27a.51.51,0,0,0-.39,0L22.53,37.9a.5.5,0,0,0,0,.92ZM50,27.27,76,38.36,50,49.46,24,38.36Z"></path>
        <path xmlns="http://www.w3.org/2000/svg"
            d="M77.08,61.18,50,72.73,22.92,61.18a.5.5,0,1,0-.39.92L49.8,73.73a.5.5,0,0,0,.39,0L77.47,62.1a.5.5,0,1,0-.39-.92Z"></path>
        <path xmlns="http://www.w3.org/2000/svg"
            d="M77.08,49.54,50,61.09,22.92,49.54a.5.5,0,0,0-.39.92L49.8,62.1a.5.5,0,0,0,.39,0L77.47,50.46a.5.5,0,1,0-.39-.92Z"></path>
    </g>
</svg>
