<svg xmlns="http://www.w3.org/2000/svg" width="96" height="96" viewBox="0 0 24 24"><path fill="#b100ff" d="M12 13.187q-.192 0-.372-.053t-.367-.14L3.39 8.914q-.218-.131-.32-.318q-.103-.186-.103-.404t.102-.403q.103-.187.32-.318l7.874-4.08q.186-.087.366-.14T12 3.198t.372.053t.367.14l7.892 4.08q.217.131.32.318q.103.186.103.403t-.103.404t-.32.318l-7.892 4.08q-.187.087-.367.14t-.372.053m0-.943l7.921-4.052L12 4.141L4.098 8.192zm0 3.808l8.158-4.198q.069-.045.34-.01q.175.039.27.163t.096.299q0 .14-.058.25t-.198.182l-7.87 4.064q-.186.087-.366.14q-.18.052-.372.052t-.372-.053q-.18-.052-.366-.139l-7.85-4.063q-.14-.073-.208-.183t-.067-.25q0-.175.104-.3q.105-.123.28-.162q.087-.038.17-.04q.084 0 .17.05zm0 3.808l8.158-4.198q.069-.045.34-.01q.175.039.27.163t.096.299q0 .14-.058.25t-.198.182l-7.87 4.064q-.186.086-.366.139t-.372.053t-.372-.053t-.366-.14l-7.85-4.063q-.14-.073-.208-.182q-.067-.11-.067-.25q0-.175.104-.3q.105-.123.28-.162q.087-.038.17-.04q.084 0 .17.05z"/></svg>