<?xml version="1.0" standalone="no"?><!DOCTYPE svg PUBLIC "-//W3C//DTD SVG 1.1//EN" "http://www.w3.org/Graphics/SVG/1.1/DTD/svg11.dtd"><svg t="1721703003332" class="icon" viewBox="0 0 1111 1024" version="1.1" xmlns="http://www.w3.org/2000/svg" p-id="17691" width="138.875" height="128" xmlns:xlink="http://www.w3.org/1999/xlink"><path d="M652.395981 440.175399q-5.214395 0-9.986501-1.159345-4.772993-1.159345-9.68337-3.340652L357.548237 306.813464q-6.613941-3.30697-10.534265-9.100152-3.920324-5.794067-3.920325-12.563119 0-6.768166 3.920325-12.717344 3.920324-5.948292 10.534265-9.255263l275.177873-128.861938q4.910377-2.181306 9.68337-3.340652 4.772106-1.159345 9.986501-1.159345 4.87315 0 9.646143 1.159345 4.772106 1.159345 9.683369 3.340652l275.75666 128.861938q6.272696 3.30697 10.414608 9.100152 4.141912 5.794067 4.141912 12.562233 0 6.769052-4.141912 12.71823-4.141912 5.948292-10.414608 9.255263L671.725493 435.675402q-4.911263 2.181306-9.683369 3.340652-4.772993 1.159345-9.646143 1.159345z m0-24.477431l279.06363-130.702886L652.395981 154.293082 373.570779 284.995082 652.395981 415.697968z m0.681603-130.702886z m-0.681603 270.711558l285.370008-133.019805q1.125664-0.784419 8.428298 0.98828 4.234978 1.363206 6.443762 4.371476 2.207897 3.007384 2.207897 7.06332 0 3.735077-2.045695 6.735371t-5.591094 4.601927L671.725493 575.684073q-4.911263 2.522551-9.683369 3.733305-4.772993 1.209867-9.646143 1.209867-5.214395 0-9.986501-1.209867-4.772993-1.210754-9.68337-3.733305l-275.007694-129.236864q-3.885757-1.601634-6.051109-4.494679-2.164466-2.893045-2.164466-6.993298 0-3.709373 2.424167-6.815142 2.42328-3.105769 6.473897-4.468975 2.027082-1.364092 4.312091-1.715087 2.285009-0.350994 4.551405 0.726807L652.395981 555.70664z m0 140.452732l285.370008-133.020691q1.125664-0.784419 8.428298 0.98828 4.234978 1.364092 6.443762 4.371476 2.207897 3.007384 2.207897 7.064207 0 3.735077-2.045695 6.73537-2.045695 2.999407-5.591094 4.601927L671.725493 716.136806q-4.911263 2.522551-9.683369 3.732418-4.772993 1.210754-9.646143 1.210754-5.214395 0-9.986501-1.210754-4.772993-1.209867-9.68337-3.732418l-275.007694-129.236865q-3.885757-1.60252-6.051109-4.495565-2.164466-2.893045-2.164466-6.993298 0-3.708487 2.424167-6.814256 2.42328-3.105769 6.473897-4.469861 2.027082-1.363206 4.312091-1.7142 2.285009-0.350994 4.551405 0.72592L652.395981 696.159372z" p-id="17692" data-spm-anchor-id="a313x.search_index.0.i10.7ecc3a815EAXqu" class="selected" fill="#b100ff"></path></svg>